HIERARCHY
ROOT Hips
{
  OFFSET 57.8838 95.319 338.509
  CHANNELS 6 Xposition Yposition Zposition Zrotation Xrotation Yrotation
  JOINT LeftUpLeg
  {
    OFFSET 8.64259 1.95398 -2.38835
    CHANNELS 3 Zrotation Xrotation Yrotation
    JOINT LeftLeg
    {
      OFFSET 43.7702 0 0
      CHANNELS 3 Zrotation Xrotation Yrotation
      JOINT LeftFoot
      {
        OFFSET 40.6238 0 0
        CHANNELS 3 Zrotation Xrotation Yrotation
        JOINT LeftToeBase
        {
          OFFSET 12.7242 0 0
          CHANNELS 3 Zrotation Xrotation Yrotation
          End Site
          {
            OFFSET 0 0 0
          }
        }
      }
    }
  }
  JOINT RightUpLeg
  {
    OFFSET -8.2249 1.95398 -2.59336
    CHANNELS 3 Zrotation Xrotation Yrotation
    JOINT RightLeg
    {
      OFFSET 43.5653 0 0
      CHANNELS 3 Zrotation Xrotation Yrotation
      JOINT RightFoot
      {
        OFFSET 40.6238 0 0
        CHANNELS 3 Zrotation Xrotation Yrotation
        JOINT RightToeBase
        {
          OFFSET 12.7242 0 0
          CHANNELS 3 Zrotation Xrotation Yrotation
          End Site
          {
            OFFSET 0 0 0
          }
        }
      }
    }
  }
  JOINT Spine
  {
    OFFSET 0.165834 0.87714 6.61349
    CHANNELS 3 Zrotation Xrotation Yrotation
    JOINT Spine1
    {
      OFFSET 7.38963 1.71661e-005 0
      CHANNELS 3 Zrotation Xrotation Yrotation
      JOINT Spine2
      {
        OFFSET 11.9445 1.14441e-005 0
        CHANNELS 3 Zrotation Xrotation Yrotation
        JOINT Spine3
        {
          OFFSET 14.7254 4.19617e-005 0
          CHANNELS 3 Zrotation Xrotation Yrotation
          JOINT Spine4
          {
            OFFSET 10.9679 0 0
            CHANNELS 3 Zrotation Xrotation Yrotation
            JOINT RightShoulder
            {
              OFFSET 2.46616 -1.6653 3.69651
              CHANNELS 3 Zrotation Xrotation Yrotation
              JOINT RightArm
              {
                OFFSET 13.0012 0 0
                CHANNELS 3 Zrotation Xrotation Yrotation
                JOINT RightForeArm
                {
                  OFFSET 28.7848 1.62311e-005 0
                  CHANNELS 3 Zrotation Xrotation Yrotation
                  JOINT RightHand
                  {
                    OFFSET 26.5688 1.62095e-005 0
                    CHANNELS 3 Zrotation Xrotation Yrotation
                    End Site
                    {
                      OFFSET 0 0 0
                    }
                  }
                }
              }
            }
            JOINT LeftShoulder
            {
              OFFSET 2.38034 -1.29275 -3.7523
              CHANNELS 3 Zrotation Xrotation Yrotation
              JOINT LeftArm
              {
                OFFSET 16.3182 6.07031e-005 0
                CHANNELS 3 Zrotation Xrotation Yrotation
                JOINT LeftForeArm
                {
                  OFFSET 27.0901 0 0
                  CHANNELS 3 Zrotation Xrotation Yrotation
                  JOINT LeftHand
                  {
                    OFFSET 24.5451 1.51738e-005 0
                    CHANNELS 3 Zrotation Xrotation Yrotation
                    End Site
                    {
                      OFFSET 0 0 0
                    }
                  }
                }
              }
            }
            JOINT Neck
            {
              OFFSET 5.0226 -0.0266342 0
              CHANNELS 3 Zrotation Xrotation Yrotation
              JOINT Head
              {
                OFFSET 6.69364 2.86102e-005 0
                CHANNELS 3 Zrotation Xrotation Yrotation
                End Site
                {
                  OFFSET 0 0 0
                }
              }
            }
          }
        }
      }
    }
  }
}
MOTION
Frames:	10
Frame Time:	0.0416667
39.1541 99.0484 -315.262 131.107 -87.7033 132.217 -179.367 0.106567 86.5988 -7.86231 15.264 0.801187 58.9599 3.63952 9.96143 35.6197 2.7941 2.73095 173.323 4.79453 93.9335 -18.4004 6.10186 -0.214188 68.6062 0.708911 12.0689 26.1209 3.29249 2.51493 1.67668 7.19072 -90.3031 12.5104 3.18688 -0.973542 0.842862 3.14095 -1.11299 -21.7237 3.33198 0.0302976 -1.71104 3.33199 0.0302927 117.577 -42.3287 -55.8259 19.5394 -39.4363 -31.3925 3.73088 -88.1246 0.0344125 27.9208 -13.7027 -55.0394 -89.7381 -59.2259 80.9006 -30.8926 -25.4783 -18.1665 1.84792 80.5254 0.00976074 -0.102106 -0.0854489 -10.0084 11.8748 -2.9414 -4.27715 4.12399 -1.24939 10.4492 
39.1429 99.0475 -315.296 129.699 -87.6311 130.763 -179.43 0.103896 86.5321 -7.83177 15.2943 0.837318 59.0222 3.62143 9.90596 34.9986 2.52623 2.95787 173.254 4.84653 93.8743 -18.4841 6.28471 -0.170899 68.5872 0.569291 12.2239 26.182 3.21713 2.48958 1.64815 7.18479 -90.2845 12.5212 3.139 -0.931354 0.853617 3.09497 -1.06873 -21.7121 3.27363 0.0560885 -1.69941 3.27364 0.0560881 117.459 -42.6712 -56.1331 19.5343 -40.1447 -30.9844 4.19925 -89.1927 0.0799347 26.5444 -12.1014 -52.1752 -89.4742 -59.2232 81.26 -30.7735 -23.5923 -18.0025 0.383076 78.4247 0.00800734 -0.905465 -0.0555044 -10.1486 12.6882 -3.45303 -3.5743 2.7129 -2.09787 8.83922 
39.1644 99.0361 -315.325 127.754 -87.3441 128.764 -179.494 0.0331967 86.462 -7.87726 15.4019 0.87379 59.0384 3.67405 9.82146 35.3213 2.6664 2.98363 173.117 4.71373 93.7373 -18.4522 6.18112 -0.065788 68.502 0.634138 12.0135 26.5263 2.74191 2.89634 1.44488 7.19964 -90.389 12.4906 2.68561 -1.08655 0.821878 2.63518 -1.20376 -21.7351 2.88791 -0.228579 -1.72247 2.88791 -0.228576 115.948 -41.7102 -58.357 21.0468 -38.8428 -29.7383 2.43401 -84.1337 0.0110187 28.92 -13.706 -54.0919 -88.5055 -61.765 82.9659 -29.2456 -21.8908 -18.2478 -1.11391 77.5715 0.00746545 -0.355726 -0.136396 -11.0657 13.707 -2.29758 0.252447 0.587647 -2.13683 6.42727 
39.0585 99.0241 -315.325 127.477 -87.784 128.737 -179.329 0.295172 86.7755 -7.84232 15.2006 0.864327 59.0411 3.58815 9.7176 35.313 2.66488 3.34725 173.453 4.82681 94.133 -18.0531 6.16659 -0.182763 68.1346 0.673089 11.9142 26.5764 2.66439 3.05917 1.49532 7.15178 -90.2919 12.585 2.83138 -0.913015 0.916738 2.78845 -1.03684 -21.6431 2.97476 -0.019131 -1.6305 2.97477 -0.0191391 115.908 -44.813 -59.3378 20.9416 -36.22 -26.8341 1.23591 -78.1505 0.003082 30.1914 -13.7021 -52.1329 -88.6798 -59.4017 82.3646 -30.9899 -20.2399 -18.4341 -2.16135 78.6476 0.00816243 -7.90014 0.380857 -13.0764 15.9184 -3.66866 -5.22086 -3.42432 -2.2456 10.9438 
39.1339 99.0119 -315.262 129.503 -87.4105 130.408 -179.746 -0.020086 86.2536 -7.91363 15.0441 1.05005 59.054 3.69627 9.81855 35.2641 2.64289 3.27349 173.059 4.65953 93.5684 -18.4052 6.01092 -0.0320601 68.2249 0.809379 11.9142 26.9551 2.15474 3.46774 1.35506 7.16952 -90.2172 12.5461 2.58859 -0.734122 0.877451 2.55377 -0.847407 -21.6784 2.68947 0.0783618 -1.66579 2.68947 0.0783497 115.133 -46.7548 -61.1089 21.1363 -34.0297 -24.1277 -3.5718 -69.6596 -4.0859 31.2842 -12.8892 -48.1741 -88.0527 -59.1708 83.1786 -31.0006 -19.115 -18.3039 -2.7182 75.8619 0.00657792 -2.70062 -0.0467902 -12.5049 17.5262 -3.93355 -6.59715 -6.54997 -2.37518 12.1692 
39.0656 99.0017 -315.239 127.637 -87.782 128.725 -179.651 0.265422 86.4634 -7.92756 15.1859 1.02536 58.946 3.68098 10.1224 35.4176 2.70908 3.09229 173.283 4.89343 93.8449 -18.2093 6.29229 -0.131711 67.9346 1.12854 12.0168 27.155 1.88209 3.77386 1.25812 7.10657 -90.1888 12.6704 2.40883 -0.660741 1.00143 2.37743 -0.766181 -21.5517 2.49599 0.0942106 -1.53903 2.49598 0.0942049 113.984 -48.5223 -63.3497 21.6582 -33.3414 -21.0563 -6.55011 -61.1936 -7.49199 29.7497 -9.92429 -40.0023 -87.5467 -58.8829 83.8244 -31.5424 -19.3077 -18.9098 -2.26681 76.6799 0.00697386 -1.43916 -0.119948 -11.5234 18.4152 -4.22275 -6.9749 -8.90957 -2.70673 11.7146 
39.036 99.0023 -315.242 127.571 -87.7587 128.659 -179.595 0.26311 86.5044 -7.92923 14.8789 1.01118 59.0336 3.71187 9.7487 35.4954 2.74324 3.1324 173.305 4.87463 93.8505 -18.1273 6.53242 -0.170316 67.7431 1.39868 12.0771 27.2757 1.7068 4.13179 1.11783 7.09586 -90.144 12.6894 2.15149 -0.54153 1.02007 2.12558 -0.635741 -21.5294 2.21472 0.13044 -1.51674 2.21473 0.130433 112.813 -49.8573 -65.4512 22.4735 -32.7732 -18.2672 -7.35496 -54.5839 -9.32808 24.6687 -6.38296 -32.942 -86.9123 -58.1897 84.5936 -32.7947 -20.2258 -19.7268 -1.01772 78.0019 0.00772911 -3.41883 0.0355414 -11.3781 20.4392 -4.58793 -7.65456 -12.7958 -3.12447 11.7195 
39.0132 99.0046 -315.301 128.234 -87.4993 129.272 -179.637 0.151905 86.4706 -7.97034 14.8732 1.06667 58.9915 3.65975 9.63491 35.37 2.68601 2.71431 173.265 4.71043 93.8147 -18.0394 7.0581 -0.225373 67.6611 1.64726 12.2123 27.1289 1.85478 4.60008 1.00936 7.10594 -90.1093 12.6676 1.95272 -0.448098 0.998018 1.93111 -0.533642 -21.5489 1.99707 0.159727 -1.53627 1.99708 0.159723 111.807 -51.1086 -67.2266 23.26 -30.3019 -15.4925 -8.54352 -46.1488 -11.463 22.4974 -4.8561 -28.3878 -86.6974 -57.5153 84.7963 -34.2031 -21.3297 -20.7287 0.632878 79.5672 0.00887284 -3.58972 0.0812459 -11.8022 21.3404 -5.20486 -9.77239 -14.9102 -3.46172 14.1614 
38.9799 99.0037 -315.323 131.417 -87.2478 132.371 -179.691 -0.112723 86.3744 -7.99487 15.0681 1.12611 58.9632 3.6954 9.80417 35.6658 2.81768 3.14327 173.202 4.50179 93.7765 -18.0676 7.90377 -0.348802 67.7687 1.85569 12.626 26.8909 2.12775 4.85193 0.784655 7.12382 -90.179 12.631 1.47325 -0.529972 0.960729 1.4485 -0.59431 -21.5812 1.5644 -0.0625915 -1.56853 1.56441 -0.0625924 109.595 -50.0912 -70.4537 25.3607 -28.8457 -12.9241 -8.23094 -37.8176 -12.9989 16.2218 -2.62526 -22.6123 -85.555 -59.626 86.6305 -33.1077 -22.4138 -21.7349 1.27592 80.7891 0.0100377 -6.11511 0.337863 -13.0916 22.4954 -3.97876 -6.9609 -17.5851 -3.18891 12.2285 
38.9405 99.0023 -315.418 132.294 -86.9228 133.017 -179.713 -0.278645 86.2029 -8.05428 15.3227 1.05295 58.9408 3.845 9.87885 35.3497 2.68117 3.33835 173.081 4.45232 93.6169 -18.265 8.82478 -0.474088 68.0231 2.04901 13.0365 26.6412 2.38818 5.40189 0.742069 7.15639 -90.0291 12.5633 1.46035 -0.227976 0.893153 1.4489 -0.292046 -21.6485 1.46134 0.221565 -1.63584 1.46133 0.221547 109.196 -52.5456 -71.3921 25.304 -26.374 -10.6521 -8.52347 -30.8451 -15.5903 12.0993 -1.44668 -17.6787 -85.7072 -56.673 86.0652 -35.207 -22.2328 -21.4429 1.45596 78.9766 0.00840287 -3.0194 0.0817561 -11.7921 22.8706 -5.24336 -10.3328 -19.1768 -3.70917 14.2002 
